<?xml version="1.0" standalone="no"?>
<!DOCTYPE svg PUBLIC "-//W3C//DTD SVG 20010904//EN"
 "http://www.w3.org/TR/2001/REC-SVG-20010904/DTD/svg10.dtd">
<svg version="1.0" xmlns="http://www.w3.org/2000/svg"
 width="975.000000pt" height="756.000000pt" viewBox="0 0 975.000000 756.000000"
 preserveAspectRatio="xMidYMid meet">
<metadata>
Created by potrace 1.10, written by Peter Selinger 2001-2011
</metadata>
<g transform="translate(0.000000,756.000000) scale(0.100000,-0.100000)"
fill="#000000" stroke="none">
<path d="M0 3780 l0 -3780 4875 0 4875 0 0 3780 0 3780 -4875 0 -4875 0 0
-3780z m4930 3280 c0 -6 20 -33 45 -59 32 -35 73 -62 140 -95 53 -25 102 -46
111 -46 9 0 28 -6 42 -14 15 -8 70 -31 122 -52 343 -135 517 -363 509 -662 -3
-97 6 -115 47 -86 41 29 53 35 163 80 62 26 309 26 360 1 19 -9 41 -17 50 -17
9 0 25 -6 36 -14 11 -7 35 -17 52 -20 18 -4 35 -12 39 -17 3 -5 22 -20 42 -33
129 -81 281 -286 282 -377 0 -18 -33 -34 -90 -44 -35 -7 -100 -47 -144 -89
-42 -40 -116 -144 -116 -163 0 -11 -4 -23 -9 -29 -15 -16 -33 -83 -27 -102 6
-17 16 -18 109 -14 97 4 106 3 183 -28 63 -25 93 -43 132 -83 56 -58 111 -158
119 -218 7 -48 27 -68 51 -51 66 46 106 57 217 57 108 0 112 -1 193 -40 45
-21 82 -43 82 -47 0 -4 -16 -8 -35 -8 -51 0 -110 -34 -175 -99 -112 -113 -186
-290 -216 -521 -7 -58 -16 -122 -20 -142 -5 -31 -3 -39 11 -44 10 -4 25 -2 34
4 9 7 36 21 60 33 59 28 188 29 230 2 39 -25 101 -81 101 -91 0 -4 -16 -14
-35 -21 -79 -28 -124 -92 -176 -251 -35 -108 -57 -156 -92 -202 -39 -51 -33
-72 23 -79 59 -7 119 -39 158 -84 38 -42 39 -51 10 -60 -34 -11 -67 -45 -93
-96 -18 -35 -25 -70 -30 -155 -9 -125 -25 -213 -50 -264 -24 -47 -101 -127
-146 -150 -43 -23 -52 -41 -34 -67 28 -40 65 -172 71 -254 13 -173 -54 -367
-172 -498 -130 -145 -314 -196 -484 -136 -41 14 -87 29 -102 32 -16 3 -28 9
-28 14 0 5 -19 18 -42 30 -49 25 -130 88 -171 133 -38 41 -87 147 -96 208 -5
26 -11 51 -14 54 -9 9 -37 -3 -41 -18 -52 -181 -152 -404 -265 -588 -45 -73
-46 -77 -45 -155 0 -70 4 -88 33 -145 19 -36 36 -67 40 -70 15 -12 51 -70 51
-83 0 -7 -7 -22 -15 -33 -23 -30 -18 -57 16 -87 26 -23 30 -31 24 -58 -15 -69
-71 -129 -120 -129 -9 0 -27 11 -41 25 -14 14 -29 25 -34 25 -12 0 -130 -116
-130 -129 0 -5 16 -19 35 -31 38 -24 40 -28 25 -82 -26 -91 -147 -121 -181
-45 -19 43 -39 44 -104 7 -42 -24 -55 -37 -55 -55 0 -13 5 -27 10 -30 6 -3 10
-20 10 -37 0 -38 -59 -98 -96 -98 -53 0 -94 35 -94 81 0 24 -41 35 -78 21 -15
-6 -42 -14 -59 -17 -31 -6 -33 -9 -33 -49 0 -44 -9 -56 -57 -84 -30 -16 -53
-15 -91 4 -40 20 -45 29 -44 75 2 42 -16 59 -62 59 -14 0 -28 5 -31 10 -8 12
-55 13 -74 1 -7 -5 -10 -14 -7 -20 12 -19 -4 -51 -34 -66 -44 -23 -82 -18
-118 12 -35 30 -41 57 -27 123 7 34 5 37 -43 68 -65 42 -89 42 -107 -2 -23
-54 -79 -63 -136 -21 -38 29 -47 46 -48 92 -1 25 6 38 29 55 17 12 30 27 30
34 0 18 -103 114 -122 114 -10 0 -27 -9 -38 -20 -11 -11 -29 -20 -40 -20 -36
0 -88 43 -105 85 -21 57 -19 82 10 101 18 12 25 25 25 50 0 18 -4 36 -10 39
-20 12 -9 57 28 113 62 92 84 146 85 210 0 32 -6 69 -14 83 -8 15 -27 51 -43
80 -15 30 -34 61 -41 69 -20 24 -73 134 -111 230 -9 25 -27 68 -39 95 -12 28
-32 84 -44 125 -13 41 -25 81 -27 89 -7 23 -20 1 -39 -63 -20 -73 -68 -171
-100 -208 -28 -33 -227 -168 -247 -168 -7 0 -22 -6 -33 -14 -33 -23 -142 -46
-215 -46 -156 0 -313 96 -407 249 -117 191 -137 447 -48 634 27 55 27 58 10
77 -10 11 -24 20 -30 20 -24 0 -112 89 -138 139 -26 50 -34 95 -57 300 -7 56
-19 110 -32 135 -21 43 -64 85 -86 86 -30 0 -24 33 14 71 42 44 111 79 153 79
51 0 59 31 20 75 -25 29 -65 117 -98 220 -16 50 -40 109 -53 132 -28 49 -91
102 -130 110 -16 3 -28 8 -28 10 0 11 81 83 109 98 19 9 59 16 104 17 65 1 84
-3 143 -31 39 -18 71 -28 76 -23 5 5 4 51 -2 108 -20 164 -26 206 -43 267 -17
60 -91 215 -129 271 -52 75 -152 147 -215 154 -24 2 -43 9 -43 13 0 5 35 26
77 46 75 35 82 36 193 37 118 1 141 -6 211 -56 26 -18 47 -2 54 39 10 64 67
172 120 229 40 43 66 59 130 84 74 30 87 32 182 29 64 -3 106 0 113 7 16 16
-35 144 -88 224 -55 82 -150 154 -228 171 -68 15 -77 25 -62 70 48 149 154
269 332 381 62 39 188 76 281 83 135 10 222 -6 330 -60 53 -26 102 -44 110
-41 13 4 14 18 9 68 -11 115 31 280 98 384 63 98 189 197 338 266 139 65 147
68 163 68 9 0 18 4 22 9 3 5 20 13 38 16 17 4 73 27 122 50 90 43 145 86 178
138 17 26 47 37 47 17z"/>
<path d="M4861 6960 c-54 -48 -164 -103 -306 -154 -64 -22 -118 -44 -201 -82
-39 -17 -128 -74 -170 -108 -18 -15 -35 -26 -38 -26 -9 0 -67 -67 -83 -94 -58
-101 -82 -166 -92 -251 -11 -90 -10 -186 4 -257 8 -44 -6 -50 -39 -19 -12 10
-37 27 -56 38 -19 10 -47 27 -62 37 -15 10 -60 29 -100 44 -62 22 -89 26 -183
25 -111 0 -171 -12 -261 -53 -126 -57 -257 -171 -330 -286 -57 -93 -56 -110
15 -134 29 -11 67 -30 85 -43 17 -13 36 -26 42 -28 16 -6 76 -78 120 -144 41
-62 68 -135 79 -217 6 -40 4 -49 -10 -54 -10 -4 -27 -1 -38 6 -11 7 -57 15
-101 17 -85 5 -168 -14 -234 -55 -36 -21 -122 -118 -122 -136 0 -8 -6 -19 -14
-25 -20 -17 -49 -148 -42 -192 8 -53 -9 -58 -52 -14 -42 42 -129 89 -185 99
-56 10 -155 -4 -180 -25 l-22 -19 30 -22 c55 -40 134 -132 175 -204 80 -140
110 -244 140 -494 22 -185 55 -288 112 -351 29 -33 143 -119 157 -119 27 0 19
44 -16 78 -7 7 -13 21 -13 31 0 9 -4 21 -9 26 -26 26 -73 205 -80 305 -13 159
1 281 54 470 15 57 17 62 55 145 26 56 106 169 142 201 90 77 252 117 324 79
31 -16 73 -20 75 -7 1 4 3 52 4 107 4 97 5 102 54 200 27 55 68 127 90 161 50
76 71 168 51 223 -23 63 -56 97 -117 119 -52 19 -60 20 -80 6 -31 -19 -29 -42
3 -50 40 -10 68 -81 54 -133 -20 -74 -113 -121 -177 -88 -31 17 -72 58 -96 97
-36 60 -28 177 18 250 14 23 51 57 83 77 53 35 63 37 149 41 81 4 100 1 165
-23 40 -15 91 -39 113 -54 67 -43 265 -252 265 -278 0 -17 30 -17 31 0 1 6 1
41 0 77 -3 113 23 257 68 379 33 92 119 266 154 314 88 121 208 203 332 228
55 11 67 10 126 -10 75 -25 136 -71 155 -118 18 -41 50 -45 64 -8 19 51 91
105 172 130 55 17 62 17 130 1 133 -31 204 -79 298 -200 52 -68 58 -79 101
-166 50 -104 67 -142 79 -185 7 -22 21 -69 32 -105 17 -56 28 -189 28 -340 0
-25 30 -5 66 45 34 46 138 158 194 210 16 14 128 71 188 95 52 20 207 9 257
-20 44 -24 105 -79 105 -94 0 -5 7 -17 16 -27 25 -28 31 -157 9 -203 -26 -54
-89 -114 -128 -121 -73 -14 -157 50 -157 119 0 44 31 102 60 111 39 12 15 55
-29 55 -34 0 -128 -48 -135 -69 -4 -9 -13 -27 -22 -41 -11 -19 -14 -43 -10
-96 4 -64 9 -79 59 -161 31 -51 73 -127 94 -170 36 -73 38 -84 40 -178 1 -55
2 -106 2 -113 1 -24 28 -23 66 2 86 59 258 19 370 -86 86 -79 189 -306 217
-473 16 -100 21 -330 8 -403 -14 -84 -63 -222 -102 -286 -42 -69 -31 -85 29
-44 160 110 189 177 233 532 11 88 24 164 30 170 5 5 10 19 10 29 0 32 74 192
121 262 30 44 133 145 149 145 19 0 10 39 -11 50 -11 6 -59 12 -107 13 -106 1
-171 -25 -245 -96 -28 -28 -49 -42 -52 -34 -2 6 -6 48 -8 93 -6 96 -38 170
-105 245 -40 45 -63 59 -165 103 -49 21 -164 21 -217 0 -54 -22 -70 -14 -70
35 0 99 102 291 194 364 37 30 123 76 169 91 78 25 -105 267 -279 369 -118 69
-195 90 -334 91 -108 1 -120 -1 -200 -33 -47 -18 -92 -40 -101 -47 -8 -8 -20
-14 -25 -14 -5 0 -29 -16 -53 -35 -68 -54 -68 -54 -51 83 13 100 -6 232 -47
332 -24 59 -111 180 -135 189 -6 2 -38 24 -72 50 -79 60 -203 120 -374 181
-34 13 -65 27 -68 31 -3 5 -14 9 -24 9 -30 0 -133 58 -181 101 -24 21 -46 39
-49 39 -3 0 -25 -18 -49 -40z m100 -121 c32 -22 59 -67 59 -97 0 -10 -15 -36
-34 -58 -29 -33 -39 -39 -74 -39 -102 0 -139 132 -54 190 45 30 65 31 103 4z"/>
<path d="M4873 6798 c-34 -16 -32 -80 2 -102 35 -23 61 -20 85 11 48 62 -14
126 -87 91z"/>
<path d="M4575 6561 c-102 -19 -229 -118 -302 -237 -28 -44 -122 -242 -134
-279 -6 -22 -18 -57 -25 -77 -8 -21 -19 -97 -25 -170 -10 -111 -9 -149 3 -233
25 -164 95 -280 203 -335 58 -30 181 -37 277 -16 70 16 80 21 129 71 30 31 57
67 61 83 3 15 13 45 22 67 9 24 15 73 15 125 1 169 -32 240 -178 394 -126 133
-161 194 -161 279 0 71 16 111 64 158 65 65 144 71 231 20 41 -24 38 -43 -8
-53 -49 -10 -76 -42 -77 -89 0 -55 48 -87 113 -75 49 9 101 91 101 159 0 45
-5 59 -42 109 -24 32 -59 66 -80 77 -44 22 -130 32 -187 22z m-205 -553 c0
-27 56 -103 136 -184 84 -85 123 -153 131 -229 7 -66 -10 -117 -54 -166 -35
-39 -36 -39 -113 -39 -74 0 -78 1 -113 35 -65 63 -85 124 -94 290 -5 104 9
187 45 260 33 68 43 80 53 63 5 -7 9 -21 9 -30z"/>
<path d="M4322 5928 c-5 -7 -14 -56 -20 -108 -18 -173 22 -352 87 -384 74 -38
147 -26 181 29 12 19 24 50 27 70 7 42 -14 140 -34 156 -7 6 -13 17 -13 23 0
6 -36 47 -79 90 -44 43 -85 92 -92 107 -12 30 -39 38 -57 17z"/>
<path d="M5115 6561 c-43 -11 -74 -29 -106 -62 -67 -69 -86 -156 -50 -227 29
-57 57 -77 107 -77 55 0 85 27 87 78 1 46 -25 75 -75 83 -60 10 -59 24 5 63
55 34 133 34 180 1 63 -46 90 -87 95 -146 10 -122 -16 -172 -174 -337 -61 -62
-91 -103 -120 -163 -37 -77 -38 -82 -38 -194 0 -140 23 -214 91 -290 62 -69
110 -85 249 -85 91 0 118 4 150 20 124 63 184 156 214 329 23 138 4 348 -45
486 -30 83 -108 245 -130 270 -8 9 -15 22 -15 28 0 7 -4 12 -9 12 -5 0 -12 9
-16 19 -11 35 -115 128 -178 159 -66 33 -165 48 -222 33z m391 -548 c4 -16 10
-33 15 -38 14 -19 31 -98 42 -199 9 -85 8 -109 -8 -175 -38 -163 -86 -212
-205 -212 -68 0 -75 2 -105 31 -38 37 -55 87 -55 160 0 78 38 150 126 238 72
72 123 142 143 195 6 15 17 27 26 27 8 0 18 -12 21 -27z"/>
<path d="M5456 5925 c-9 -9 -16 -20 -16 -25 0 -4 -34 -43 -76 -87 -118 -120
-129 -141 -129 -243 0 -122 20 -148 117 -152 92 -4 145 52 168 181 22 118 2
332 -31 339 -9 2 -24 -4 -33 -13z"/>
<path d="M4580 6392 c-35 -23 -48 -40 -70 -90 -25 -55 -25 -89 0 -144 28 -62
36 -72 129 -167 90 -93 126 -141 158 -211 31 -65 47 -176 39 -260 -6 -70 -6
-71 16 -68 16 2 24 12 29 36 4 19 12 39 18 45 15 15 31 -3 40 -45 5 -24 13
-34 30 -36 22 -4 22 -2 16 65 -8 83 15 226 44 274 12 19 25 43 30 54 10 22 26
40 146 166 91 94 125 156 125 226 0 64 -28 113 -90 156 -27 19 -105 23 -115 7
-4 -6 8 -24 26 -41 30 -28 33 -37 33 -86 0 -52 -2 -58 -39 -89 -30 -26 -47
-34 -78 -34 -46 0 -98 34 -122 81 -9 17 -24 29 -35 29 -11 0 -26 -12 -35 -29
-24 -47 -76 -81 -122 -81 -31 0 -48 8 -78 34 -37 31 -39 36 -39 90 0 52 2 59
32 82 18 14 32 32 32 40 0 20 -88 18 -120 -4z m385 -382 c61 -37 69 -101 21
-153 -46 -49 -144 -31 -167 31 -17 45 -1 101 35 123 40 24 70 24 111 -1z"/>
<path d="M4869 5973 c-26 -30 -30 -54 -14 -80 14 -21 23 -24 63 -21 41 3 48 6
56 31 15 43 -9 81 -55 85 -24 2 -40 -3 -50 -15z"/>
<path d="M3389 5914 c-89 -27 -163 -131 -162 -225 1 -86 87 -177 153 -163 52
11 70 31 70 77 0 58 -34 92 -90 90 -22 -1 -42 3 -46 8 -7 12 58 73 102 94 34
16 109 12 120 -6 3 -5 12 -9 20 -9 43 0 124 -121 124 -186 0 -49 -27 -124 -69
-194 -22 -36 -58 -103 -81 -150 -23 -47 -46 -93 -51 -102 -5 -10 -9 -64 -9
-120 0 -105 12 -153 60 -248 25 -49 117 -131 166 -149 106 -39 296 3 373 81
50 51 88 136 100 218 14 104 -8 302 -42 385 -29 67 -83 175 -112 220 -58 90
-222 272 -280 310 -116 76 -242 101 -346 69z m485 -493 c35 -48 52 -81 85
-169 41 -106 40 -311 -3 -374 -46 -68 -156 -99 -225 -63 -36 18 -74 84 -91
153 -16 71 5 148 67 246 65 101 103 185 103 228 0 48 18 43 64 -21z"/>
<path d="M3834 5374 c-12 -38 -74 -155 -109 -209 -28 -42 -39 -70 -44 -117 -9
-68 -4 -138 9 -138 4 0 13 -13 18 -29 8 -22 20 -32 49 -40 21 -6 45 -11 54
-11 33 0 89 31 112 62 53 71 36 285 -32 430 -29 60 -48 78 -57 52z"/>
<path d="M6246 5915 c-15 -8 -39 -15 -52 -15 -12 0 -26 -5 -29 -11 -4 -5 -17
-15 -28 -20 -52 -25 -84 -47 -117 -81 -95 -99 -120 -127 -120 -135 0 -5 -8
-16 -17 -24 -10 -9 -25 -26 -33 -39 -8 -12 -27 -38 -42 -58 -16 -19 -28 -41
-28 -48 0 -7 -6 -19 -14 -27 -8 -7 -24 -38 -36 -68 -12 -30 -27 -65 -32 -79
-31 -72 -51 -230 -45 -345 6 -107 37 -184 101 -249 45 -46 89 -67 186 -92 110
-27 187 -10 278 63 47 37 102 117 102 148 0 6 7 23 15 39 18 34 24 251 7 281
-6 11 -26 52 -45 90 -18 39 -47 91 -63 115 -57 89 -78 143 -82 211 -3 48 0 75
12 97 45 87 137 149 205 138 37 -6 127 -62 136 -84 8 -22 -6 -34 -34 -29 -42
8 -88 -16 -96 -52 -16 -75 14 -111 94 -111 42 0 55 9 95 64 77 104 15 265
-120 316 -65 24 -157 26 -198 5z m-226 -486 c0 -44 7 -60 89 -198 65 -108 72
-128 78 -226 4 -65 2 -74 -26 -118 -39 -60 -83 -87 -141 -86 -98 0 -172 72
-184 179 -13 110 18 282 60 345 8 11 14 25 14 32 0 7 8 21 18 32 9 10 30 35
45 55 34 43 47 39 47 -15z"/>
<path d="M5940 5333 c-40 -81 -62 -172 -67 -279 -5 -106 1 -129 45 -181 28
-32 89 -47 138 -34 118 32 127 199 20 370 -29 47 -62 105 -72 128 -10 23 -24
43 -30 43 -6 0 -21 -21 -34 -47z"/>
<path d="M4879 5408 c-7 -13 -17 -28 -23 -34 -19 -19 -59 -66 -123 -142 -80
-95 -97 -144 -98 -282 0 -58 -3 -107 -7 -110 -3 -3 -15 7 -27 21 -34 43 -154
136 -186 143 -73 17 -81 17 -94 3 -10 -12 -10 -20 0 -35 10 -16 7 -36 -20
-118 -18 -55 -36 -103 -41 -109 -4 -5 -17 -38 -29 -73 -34 -100 -25 -207 22
-257 24 -27 27 -27 71 -16 82 20 136 -17 136 -94 0 -79 -101 -116 -163 -60
-15 14 -27 34 -27 44 0 21 -34 47 -74 57 -15 3 -53 24 -87 45 -33 22 -62 39
-64 39 -2 0 -26 13 -52 28 -132 77 -235 87 -343 35 -36 -18 -76 -44 -90 -58
l-24 -26 42 -37 c49 -43 84 -131 97 -242 4 -36 13 -91 20 -122 13 -59 58 -163
74 -173 5 -3 35 -8 65 -10 41 -4 57 -2 60 7 25 89 35 107 77 150 35 34 62 51
102 63 70 20 86 37 55 59 -12 9 -26 16 -31 16 -4 0 -20 9 -36 21 -17 13 -49
22 -87 25 -71 6 -123 19 -186 47 -38 16 -52 29 -69 65 -21 42 -21 46 -5 78 21
45 55 57 139 51 55 -5 79 -13 128 -43 97 -58 184 -149 261 -271 22 -36 55 -44
65 -15 10 30 56 73 98 92 66 30 127 35 190 15 82 -26 86 -15 30 91 -37 71 -63
105 -130 169 -115 111 -145 179 -111 260 18 41 42 55 99 55 40 0 50 -5 101
-53 31 -29 56 -56 56 -61 0 -5 6 -17 14 -25 35 -39 77 -177 92 -301 13 -98 13
-100 42 -100 16 0 33 5 40 12 17 17 130 13 176 -7 51 -22 63 -15 69 37 28 241
62 332 162 436 59 60 62 62 113 62 58 0 82 -18 99 -75 20 -65 -17 -149 -101
-228 -23 -21 -55 -51 -72 -67 -39 -37 -119 -189 -106 -202 6 -6 30 -6 66 2
124 26 250 -31 280 -128 4 -12 13 -22 21 -22 17 0 45 27 45 45 0 14 117 165
155 200 70 65 136 102 216 121 49 12 64 11 102 -2 60 -20 77 -57 56 -118 -11
-33 -24 -46 -63 -67 -46 -25 -72 -32 -220 -58 -33 -6 -67 -17 -75 -24 -9 -7
-28 -18 -43 -25 -47 -19 -33 -52 27 -66 74 -17 160 -99 171 -161 3 -22 11 -46
16 -53 13 -15 114 -8 135 10 30 25 72 134 82 218 24 189 53 274 108 316 18 14
33 30 33 36 0 23 -64 67 -135 93 -62 22 -83 25 -131 19 -31 -3 -69 -13 -83
-20 -14 -8 -33 -14 -42 -14 -9 0 -22 -7 -29 -15 -7 -8 -17 -15 -21 -15 -5 0
-51 -25 -101 -55 -51 -31 -104 -58 -118 -62 -32 -7 -70 -42 -70 -63 0 -31 -46
-63 -91 -63 -35 0 -48 6 -71 32 -32 36 -35 59 -12 107 20 42 78 64 120 46 39
-18 58 -14 82 17 29 40 46 112 39 171 -3 27 -22 89 -42 137 -20 48 -44 106
-53 127 -10 23 -16 64 -15 98 1 70 -6 76 -73 59 -51 -13 -124 -63 -196 -136
-27 -26 -49 -43 -49 -38 -1 4 -2 62 -3 128 -1 109 -4 125 -29 175 -15 30 -52
81 -82 113 -30 33 -76 85 -102 118 -51 63 -75 72 -94 37z m65 -327 c24 -26 37
-75 45 -161 l6 -75 47 0 c25 0 49 -3 53 -7 4 -4 -2 -19 -12 -35 -18 -26 -33
-96 -53 -247 -5 -32 -13 -63 -19 -69 -6 -6 -11 -21 -11 -33 0 -23 -64 -74 -93
-74 -30 0 -87 59 -87 90 0 16 -4 31 -9 35 -5 3 -12 36 -16 73 -3 37 -13 87
-21 111 -8 25 -14 55 -14 69 0 13 -9 35 -20 49 -26 34 -16 46 31 38 53 -9 72
6 63 51 -13 68 37 204 75 204 10 0 25 -8 35 -19z"/>
<path d="M4883 5048 c-4 -7 -8 -68 -8 -135 0 -67 -3 -124 -6 -128 -4 -3 -18 0
-33 6 -39 18 -54 0 -37 -46 7 -19 16 -73 21 -119 12 -121 37 -195 68 -203 69
-17 104 45 115 201 3 49 11 94 17 100 13 13 13 76 1 76 -5 0 -22 -5 -37 -10
-15 -6 -31 -7 -35 -3 -5 5 -5 39 -1 76 7 52 -1 166 -12 183 -7 11 -46 12 -53
2z"/>
<path d="M5579 5215 c-77 -50 -210 -65 -336 -39 -18 3 -40 3 -49 0 -15 -6 -15
-8 -2 -24 17 -19 25 -48 38 -135 4 -32 11 -61 14 -64 3 -3 25 10 50 30 68 56
137 79 225 75 83 -3 78 -7 100 85 22 92 14 106 -40 72z"/>
<path d="M4195 5220 c-8 -12 11 -104 28 -138 11 -22 19 -24 102 -26 99 -2 143
-18 211 -78 40 -36 54 -29 54 30 0 40 29 134 44 144 8 5 7 11 -2 20 -9 9 -27
10 -82 0 -120 -20 -193 -12 -283 34 -52 27 -63 29 -72 14z"/>
<path d="M5558 5005 c-27 -36 -22 -74 23 -182 22 -54 43 -107 46 -118 3 -11
11 -26 17 -34 6 -8 11 -55 11 -110 0 -76 -4 -103 -18 -124 -27 -41 0 -45 59
-8 26 17 51 31 55 31 4 0 33 16 65 35 32 20 76 40 96 46 49 13 49 36 1 45 -54
9 -180 83 -213 124 -24 30 -39 62 -81 168 -5 13 -9 40 -9 62 0 42 -15 90 -27
90 -5 0 -16 -11 -25 -25z"/>
<path d="M4224 5008 c-4 -6 -7 -26 -6 -44 1 -35 -23 -120 -56 -194 -19 -42
-34 -61 -88 -107 -30 -26 -123 -70 -169 -80 -48 -10 -51 -24 -8 -35 40 -10
195 -91 241 -125 36 -27 69 -24 57 5 -30 71 -37 101 -31 153 5 48 36 142 67
201 44 85 63 200 37 226 -15 15 -35 15 -44 0z"/>
<path d="M3167 4910 c-131 -55 -222 -168 -287 -360 -78 -233 -86 -514 -19
-698 20 -54 64 -146 80 -166 5 -6 20 -25 34 -43 81 -101 270 -129 415 -60 58
27 126 96 149 151 63 146 15 369 -105 490 -27 27 -98 85 -159 130 -60 45 -121
99 -136 120 -65 97 -57 204 22 285 55 56 77 63 151 51 89 -14 118 -47 56 -65
-45 -14 -75 -74 -58 -116 7 -17 23 -37 35 -45 58 -38 161 54 156 139 -4 68
-71 172 -119 184 -14 3 -37 12 -51 19 -39 21 -89 16 -164 -16z m-113 -575 c17
-39 40 -61 135 -132 162 -121 211 -191 211 -300 0 -103 -49 -160 -146 -171
-94 -10 -151 35 -216 168 l-42 85 0 155 c-1 125 2 162 16 193 9 20 19 37 22
37 3 0 12 -16 20 -35z"/>
<path d="M3027 4263 c-21 -21 2 -251 32 -318 42 -93 55 -115 85 -144 30 -29
42 -34 88 -35 66 -1 109 27 128 85 18 54 -1 130 -45 185 -34 41 -166 154 -180
154 -5 0 -23 18 -42 40 -33 38 -52 48 -66 33z"/>
<path d="M6482 4916 c-95 -40 -142 -104 -142 -191 0 -118 107 -192 171 -119
42 48 28 104 -33 135 -21 11 -38 24 -38 29 0 13 30 28 86 40 69 16 118 -5 169
-71 33 -43 40 -61 43 -111 5 -61 -12 -116 -49 -165 -19 -25 -117 -108 -170
-144 -44 -29 -169 -144 -169 -155 0 -4 -6 -15 -14 -23 -12 -14 -23 -45 -67
-187 -5 -18 -5 -58 0 -101 23 -182 127 -281 316 -304 84 -10 94 -10 150 11 65
25 158 104 182 155 7 17 17 37 23 45 20 33 40 84 40 102 0 10 6 31 14 46 26
51 40 239 26 354 -16 136 -58 308 -87 353 -7 11 -13 27 -13 35 0 19 -69 121
-121 178 -40 43 -89 73 -159 97 -60 20 -94 18 -158 -9z m340 -622 c20 -71 22
-136 7 -241 -11 -84 -12 -87 -54 -180 -44 -97 -106 -143 -192 -143 -85 0 -140
50 -153 139 -18 129 33 214 190 319 67 44 145 121 155 151 11 36 29 19 47 -45z"/>
<path d="M6732 4228 c-26 -24 -72 -61 -101 -83 -142 -108 -178 -166 -168 -268
8 -86 78 -131 166 -107 98 26 171 198 171 402 0 48 -4 89 -9 93 -6 3 -32 -14
-59 -37z"/>
<path d="M3240 4769 c-64 -26 -103 -89 -102 -167 0 -46 6 -63 38 -109 20 -30
46 -59 57 -65 12 -6 26 -15 31 -20 6 -5 49 -37 97 -71 102 -75 147 -122 186
-202 83 -165 84 -295 6 -453 -24 -49 -96 -122 -120 -122 -6 0 -16 -7 -23 -15
-7 -8 -22 -15 -34 -15 -12 0 -27 -5 -32 -10 -15 -15 -163 -23 -209 -12 -301
76 -421 157 -495 336 -24 56 -68 106 -95 106 -7 0 -18 6 -24 14 -16 19 -102
46 -148 46 -85 0 -165 -58 -117 -85 52 -28 134 -149 134 -195 0 -10 4 -21 9
-24 5 -3 12 -23 16 -43 17 -95 116 -242 188 -279 45 -24 31 -34 -46 -34 -75 0
-164 -20 -204 -46 -30 -19 -30 -57 1 -77 49 -33 78 -129 91 -307 10 -138 53
-230 133 -290 30 -22 62 -40 72 -40 10 0 28 -9 41 -19 l24 -19 -22 -24 c-12
-12 -26 -34 -32 -48 -6 -14 -15 -32 -20 -40 -43 -75 -57 -295 -25 -401 32
-110 85 -200 164 -280 107 -108 141 -122 303 -122 106 -1 130 2 144 16 26 26
3 40 -69 42 -141 4 -275 127 -321 295 -5 19 -14 77 -20 128 -9 81 -8 104 8
165 10 40 25 88 33 107 19 43 108 173 167 246 63 77 85 133 85 216 0 81 -21
117 -98 168 -53 35 -101 39 -126 11 -19 -20 -14 -41 8 -41 20 0 53 -42 61 -77
9 -44 -13 -110 -48 -139 -24 -20 -39 -24 -92 -24 -56 0 -67 3 -93 28 -46 42
-84 120 -89 182 -7 73 25 146 94 214 64 63 117 85 213 85 72 1 179 -25 204
-50 6 -5 18 -9 27 -9 10 0 49 -29 88 -65 39 -36 75 -65 80 -65 18 0 41 12 41
22 0 12 74 101 114 137 16 14 41 37 56 51 84 79 178 158 221 187 27 18 57 39
65 48 9 8 19 15 24 15 4 0 31 16 60 35 127 85 435 211 580 236 188 33 270 42
395 43 145 1 363 -19 379 -35 6 -5 27 -9 47 -9 63 0 397 -122 489 -178 19 -12
44 -26 55 -32 11 -6 34 -19 50 -30 17 -11 37 -23 45 -27 32 -14 194 -142 284
-223 71 -64 186 -183 186 -192 0 -10 46 -58 55 -58 5 0 36 26 69 59 103 98
226 147 354 139 116 -7 201 -58 258 -156 24 -40 28 -58 29 -124 0 -66 -4 -84
-29 -131 -47 -87 -117 -119 -207 -94 -34 9 -79 75 -86 125 -5 37 -2 43 41 86
39 40 45 50 36 66 -6 11 -21 20 -33 20 -27 0 -108 -30 -125 -47 -7 -7 -18 -13
-23 -13 -11 0 -38 -61 -50 -113 -12 -50 20 -163 56 -197 14 -13 25 -28 25 -33
0 -5 12 -24 28 -43 15 -18 40 -49 56 -68 16 -20 34 -44 40 -55 80 -144 91
-181 91 -321 -1 -206 -71 -348 -211 -426 -54 -30 -76 -36 -129 -38 -74 -2 -99
-17 -72 -43 25 -25 224 -25 292 1 52 20 115 65 173 122 36 36 122 179 122 204
0 8 7 29 16 45 24 44 24 317 1 360 -9 17 -17 37 -17 46 0 9 -7 22 -15 29 -8 7
-15 19 -15 28 0 9 -10 26 -21 38 -26 27 -19 54 14 54 28 0 102 46 138 86 64
71 74 108 99 341 12 117 37 183 80 215 17 12 30 30 30 39 0 48 -120 93 -232
87 -81 -3 -101 12 -46 35 74 33 150 149 199 307 13 41 31 92 42 115 22 45 84
115 104 115 7 0 13 11 13 25 0 52 -133 83 -216 50 -106 -42 -153 -85 -185
-168 -30 -75 -130 -183 -206 -221 -96 -48 -284 -106 -343 -106 -155 0 -317 90
-359 200 -7 19 -20 49 -27 67 -16 36 -18 157 -4 221 6 23 14 59 19 80 14 61
58 126 131 195 60 58 161 135 209 161 32 18 81 89 96 139 14 47 14 56 -2 100
-24 66 -100 127 -134 107 -12 -8 -12 -14 0 -42 34 -78 10 -146 -64 -179 -35
-16 -48 -17 -76 -8 -48 16 -96 65 -104 106 -8 45 -31 53 -61 19 -14 -14 -46
-37 -73 -50 -61 -31 -81 -53 -55 -62 60 -18 127 -59 187 -114 79 -73 86 -95
27 -85 -32 5 -46 2 -70 -15 -35 -25 -70 -98 -70 -149 0 -33 -10 -98 -30 -196
-11 -52 -36 -120 -57 -152 -16 -25 -16 -26 8 -45 65 -51 85 -75 117 -136 28
-53 28 -115 2 -167 -11 -22 -20 -43 -20 -48 0 -15 85 -87 104 -87 10 0 27 11
38 25 37 47 52 50 248 50 l185 1 65 35 c36 19 82 45 103 57 71 41 64 21 -21
-65 -97 -98 -235 -203 -266 -203 -7 0 -26 -7 -43 -15 -16 -8 -64 -19 -106 -25
-69 -10 -80 -9 -114 9 -21 11 -64 44 -95 73 -156 146 -322 277 -403 318 -11 6
-33 19 -50 30 -47 30 -186 96 -285 135 -25 9 -56 22 -70 27 -36 15 -127 38
-187 48 -28 4 -57 11 -62 15 -19 11 -254 35 -351 35 -106 0 -332 -25 -361 -40
-10 -6 -30 -10 -46 -10 -15 0 -45 -6 -68 -14 -22 -8 -67 -22 -100 -31 -82 -25
-144 -50 -253 -104 -35 -17 -68 -31 -73 -31 -5 0 -28 -13 -51 -30 -22 -17 -45
-30 -50 -30 -22 0 -241 -172 -360 -283 -103 -96 -150 -125 -206 -126 -34 -1
-138 25 -157 39 -5 4 -23 10 -40 14 -16 4 -32 11 -35 15 -3 4 -27 20 -53 36
-55 31 -245 211 -235 221 7 7 38 -7 139 -63 78 -43 142 -51 320 -38 100 7 109
7 143 -14 20 -13 41 -31 46 -42 15 -27 50 -23 86 10 43 39 47 56 24 99 -25 46
-28 143 -5 162 8 7 15 20 15 29 0 9 8 24 18 32 9 9 26 27 37 40 12 13 34 34
50 46 l30 22 -17 33 c-37 70 -56 145 -80 303 -23 154 -66 212 -147 199 -53 -8
-53 4 2 59 60 61 113 99 171 124 28 12 51 27 51 35 0 7 -23 24 -52 38 -28 14
-60 33 -71 43 -26 23 -56 18 -60 -9 -4 -25 -47 -76 -79 -93 -30 -15 -78 -14
-113 4 -68 35 -90 109 -48 165 17 24 19 32 8 45 -14 17 -16 17 -50 4z"/>
<path d="M4458 4723 c-9 -3 -27 -20 -38 -38 l-21 -34 21 -48 c14 -32 51 -77
114 -138 58 -55 104 -110 121 -142 56 -108 66 -40 20 136 -31 120 -94 219
-160 251 -37 18 -36 17 -57 13z"/>
<path d="M5310 4709 c-14 -6 -39 -26 -57 -46 -37 -41 -103 -170 -103 -200 0
-11 -7 -40 -15 -63 -17 -48 -20 -140 -5 -140 5 0 21 24 36 53 16 31 66 92 124
152 132 135 151 176 109 229 -21 27 -47 32 -89 15z"/>
<path d="M5960 4371 c-62 -13 -157 -76 -236 -158 -34 -36 -38 -43 -24 -48 10
-3 40 6 68 20 35 17 74 27 129 31 120 10 194 59 179 118 -5 21 -53 49 -75 45
-3 -1 -22 -5 -41 -8z"/>
<path d="M3756 4348 c-8 -12 -14 -24 -13 -27 30 -67 78 -94 191 -106 69 -7 92
-14 152 -43 35 -17 84 -9 52 9 -9 5 -45 36 -80 69 -85 81 -160 120 -231 120
-46 0 -59 -4 -71 -22z"/>
<path d="M4332 4354 c-28 -19 -29 -57 -2 -84 25 -25 42 -25 62 -2 28 32 29 52
3 78 -28 28 -33 29 -63 8z"/>
<path d="M5444 4360 c-60 -23 -27 -119 34 -103 39 10 44 90 7 103 -11 4 -29 4
-41 0z"/>
<path d="M4823 4181 c-61 -29 -104 -107 -70 -128 6 -4 81 -8 165 -8 127 -1
154 1 161 13 14 26 -7 65 -55 101 -59 44 -136 53 -201 22z"/>
<path d="M4443 4145 c-50 -21 -92 -65 -104 -107 -14 -52 -4 -82 24 -74 12 3
63 15 112 27 50 12 98 25 107 30 10 5 31 9 47 9 16 0 34 7 41 15 11 13 10 20
-7 43 -46 61 -149 88 -220 57z"/>
<path d="M5225 4140 c-46 -20 -85 -55 -85 -74 0 -23 22 -34 100 -50 79 -16
180 -40 217 -51 18 -6 23 -2 28 18 4 14 4 35 0 47 -12 37 -68 92 -113 111 -54
23 -95 23 -147 -1z"/>
<path d="M4073 3999 c-23 -11 -60 -38 -81 -60 -32 -31 -41 -48 -46 -90 -10
-70 3 -81 57 -50 60 34 164 86 220 111 58 27 61 50 10 85 -47 31 -102 33 -160
4z"/>
<path d="M5603 4009 c-32 -9 -63 -42 -63 -66 0 -7 12 -16 28 -19 15 -4 51 -20
81 -35 30 -16 60 -29 67 -29 7 0 19 -6 26 -13 29 -28 89 -58 110 -55 31 4 33
25 8 91 -18 47 -29 61 -75 92 -60 39 -125 52 -182 34z"/>
<path d="M4685 3994 c-27 -7 -66 -14 -85 -14 -32 0 -126 -23 -205 -49 -16 -5
-48 -15 -70 -21 -22 -7 -73 -28 -113 -46 -40 -19 -75 -34 -77 -34 -3 0 -33
-17 -67 -38 -100 -61 -121 -66 -165 -37 -45 31 -138 35 -181 8 -75 -47 -122
-118 -122 -183 0 -37 27 -100 43 -100 7 0 49 28 92 61 84 64 173 124 209 140
12 5 29 13 39 19 43 25 56 32 125 65 40 19 78 35 85 35 7 0 17 4 23 8 12 10
111 49 144 56 14 2 50 12 80 21 270 81 681 81 950 0 30 -9 66 -18 80 -21 36
-8 224 -84 260 -105 8 -5 25 -13 37 -18 11 -6 24 -15 28 -20 3 -6 17 -11 30
-11 13 0 26 -4 29 -9 4 -5 36 -26 72 -46 61 -33 135 -85 159 -111 20 -22 73
-54 89 -54 32 0 47 88 26 159 -10 34 -37 64 -98 109 -43 30 -147 32 -185 2
-14 -11 -34 -20 -46 -20 -20 0 -88 33 -138 67 -15 11 -64 34 -108 52 -44 18
-93 39 -108 47 -16 8 -38 14 -50 14 -12 1 -33 7 -47 15 -14 8 -38 15 -55 15
-16 0 -41 7 -55 15 -14 8 -48 14 -76 15 -28 0 -73 7 -100 15 -66 20 -377 19
-449 -1z"/>
<path d="M4615 3784 c-49 -7 -112 -20 -140 -28 -27 -8 -70 -20 -95 -27 -131
-37 -303 -114 -455 -204 -170 -101 -401 -300 -512 -442 -52 -66 -42 -94 23
-67 81 34 151 -13 139 -93 -6 -42 -6 -43 17 -32 13 6 40 32 61 58 48 57 137
135 282 245 168 128 431 258 570 282 22 3 45 10 50 14 6 4 28 11 50 14 215 35
466 34 610 -3 22 -5 67 -16 100 -24 158 -37 377 -140 545 -256 112 -77 320
-267 363 -330 10 -15 22 -21 31 -18 13 5 15 17 10 65 -6 58 -6 59 28 86 41 31
50 32 88 10 27 -16 60 -14 60 4 0 14 -69 99 -130 161 -113 114 -310 274 -395
320 -22 12 -53 30 -70 41 -44 28 -97 52 -220 103 -162 66 -242 90 -395 118
-128 23 -471 25 -615 3z m382 -69 c31 -31 34 -39 28 -71 -10 -54 -49 -83 -112
-84 -104 0 -150 88 -84 159 25 27 36 31 81 31 46 0 56 -4 87 -35z m-421 -39
c49 -49 48 -94 -3 -134 -50 -38 -84 -46 -127 -28 -25 10 -40 26 -51 53 -15 35
-15 41 1 75 19 41 62 67 113 68 24 0 42 -9 67 -34z m815 11 c54 -45 64 -103
26 -150 -16 -20 -32 -29 -56 -30 -49 -3 -48 16 0 39 61 28 68 57 25 100 -43
43 -82 45 -119 6 -34 -36 -34 -46 3 -82 29 -29 40 -60 20 -60 -5 0 -10 3 -10
8 0 4 -14 16 -30 27 -26 17 -30 26 -30 66 0 46 21 78 60 92 35 13 86 6 111
-16z m-1207 -148 c22 -17 26 -28 26 -69 0 -39 -4 -52 -19 -60 -11 -5 -22 -10
-25 -10 -10 0 -7 29 5 48 9 14 8 26 -2 48 -12 24 -21 30 -55 32 -36 3 -45 -1
-72 -32 -35 -40 -33 -66 6 -96 19 -15 34 -19 59 -14 27 5 32 3 27 -9 -14 -37
-99 -24 -134 21 -32 40 -21 88 27 129 47 41 114 46 157 12z m1610 -1 c28 -18
36 -32 41 -64 10 -61 -20 -105 -80 -118 -25 -5 -41 0 -85 31 -47 33 -55 44
-58 74 -2 27 3 44 23 68 23 27 33 31 75 31 33 0 60 -7 84 -22z m-2019 -218 c3
-5 15 -10 25 -10 13 0 27 -14 40 -40 19 -38 19 -41 3 -77 -10 -21 -21 -39 -25
-41 -3 -2 -16 -12 -29 -23 -30 -26 -98 -26 -133 2 -37 29 -37 104 -1 143 38
41 107 68 120 46z m2345 -11 c63 -38 83 -68 77 -119 -7 -60 -36 -84 -98 -78
-47 5 -109 41 -109 65 0 7 -6 22 -12 33 -10 16 -10 24 0 40 6 11 12 27 12 35
0 15 50 43 80 44 8 1 31 -9 50 -20z"/>
<path d="M4869 3713 c-16 -4 -39 -43 -39 -67 0 -7 10 -22 23 -34 33 -31 85
-29 120 3 32 30 32 29 10 65 -21 36 -61 48 -114 33z"/>
<path d="M4459 3665 c-60 -32 -57 -104 5 -125 30 -9 39 -8 63 7 58 37 68 75
30 111 -27 25 -60 27 -98 7z"/>
<path d="M5666 3514 c-33 -33 -15 -94 35 -119 34 -18 56 -14 87 16 30 27 28
49 -9 87 -35 36 -86 43 -113 16z"/>
<path d="M3748 3291 c-61 -14 -101 -78 -79 -127 9 -20 18 -24 52 -24 35 0 47
6 75 37 19 20 34 41 34 46 0 14 -40 77 -48 76 -4 -1 -19 -4 -34 -8z"/>
<path d="M6027 3270 l-31 -28 18 -41 c25 -53 38 -63 86 -65 75 -2 94 65 34
119 -50 46 -69 49 -107 15z"/>
<path d="M4730 3471 c-167 -23 -402 -93 -498 -149 -26 -16 -65 -36 -87 -46
-87 -40 -260 -161 -345 -243 -25 -24 -48 -43 -51 -43 -4 0 -35 -32 -70 -71
-63 -71 -63 -71 -65 -138 -2 -61 11 -152 50 -356 9 -44 21 -105 27 -135 11
-58 55 -221 68 -255 5 -11 16 -37 25 -58 9 -21 16 -44 16 -52 0 -8 7 -31 16
-52 9 -21 22 -51 29 -68 6 -16 26 -59 43 -95 17 -36 40 -86 52 -112 12 -27 26
-48 31 -48 5 0 9 -5 9 -11 0 -11 70 -128 115 -194 21 -29 29 -40 130 -155 124
-141 294 -271 455 -347 203 -96 232 -98 385 -24 183 89 367 222 495 358 118
125 220 249 220 267 0 3 18 33 40 65 69 100 168 303 200 406 10 32 23 62 46
108 8 16 14 37 14 47 0 10 11 46 24 81 13 35 33 118 45 184 12 66 29 146 38
177 11 39 16 103 17 202 l1 145 -85 86 c-139 140 -303 264 -431 326 -9 4 -56
28 -104 54 -98 52 -237 99 -337 115 -37 6 -80 15 -95 21 -34 13 -348 20 -423
10z m215 -228 c10 -14 20 -49 24 -76 6 -47 9 -52 51 -75 68 -38 77 -57 30 -67
-39 -8 -65 -46 -52 -72 6 -10 20 -27 31 -37 32 -29 27 -62 -11 -82 -60 -30
-69 -43 -62 -89 5 -38 3 -42 -21 -53 -46 -21 -96 23 -63 56 18 18 -6 53 -58
85 -24 14 -44 33 -44 40 0 7 14 29 30 47 17 18 30 41 30 49 -1 25 -24 49 -53
56 -15 4 -27 11 -27 16 0 13 42 50 68 60 24 9 42 45 42 85 0 28 37 84 56 84 6
0 20 -12 29 -27z m-978 -427 c26 -22 195 -76 239 -76 26 0 209 -89 272 -132
29 -19 81 -61 117 -92 55 -49 71 -73 113 -159 81 -169 115 -319 129 -571 4
-71 2 -88 -8 -84 -10 3 -16 35 -21 106 -30 414 -131 643 -326 741 -43 21 -102
43 -132 50 -30 7 -77 19 -105 27 -27 8 -75 22 -105 31 -30 8 -64 20 -75 26
-11 6 -34 18 -52 26 -37 19 -93 86 -93 112 0 25 13 24 47 -5z m1938 14 c9 -14
-19 -61 -57 -96 -39 -37 -162 -84 -320 -123 -131 -33 -237 -83 -293 -138 -46
-44 -110 -147 -120 -192 -3 -17 -11 -33 -16 -36 -5 -4 -9 -16 -9 -28 0 -12 -7
-35 -15 -51 -8 -15 -15 -39 -15 -51 0 -13 -4 -35 -9 -48 -12 -31 -32 -207 -33
-288 -1 -58 -18 -93 -33 -69 -7 11 8 169 26 285 6 33 13 83 18 110 4 28 12 59
18 70 6 11 13 36 17 56 8 44 55 144 100 210 46 68 179 178 260 216 17 7 45 21
61 31 26 15 80 34 210 72 17 4 49 11 72 15 23 4 59 19 80 35 42 32 49 34 58
20z m-1949 -201 c16 -17 48 -39 70 -49 23 -10 45 -23 48 -29 4 -6 14 -11 23
-11 8 0 29 -6 46 -14 44 -19 154 -56 170 -56 16 0 150 -67 202 -102 45 -29
111 -95 130 -130 37 -65 53 -107 56 -148 l4 -45 -130 -3 c-211 -5 -309 32
-429 159 -42 44 -76 85 -76 90 0 5 -13 28 -30 51 -16 22 -30 47 -30 53 0 7 -7
18 -15 25 -8 7 -15 23 -15 36 0 13 -4 24 -10 24 -5 0 -10 8 -10 18 0 13 6 10
25 -13 13 -16 24 -34 25 -39 0 -4 14 -28 30 -53 17 -24 30 -47 30 -51 0 -4 9
-15 20 -25 11 -9 20 -24 20 -32 0 -8 4 -15 9 -15 5 0 33 -25 62 -55 81 -85
114 -96 300 -103 147 -4 158 -3 167 15 29 53 -124 212 -183 190 -8 -4 -17 -19
-20 -34 -13 -66 -21 -78 -58 -96 -48 -24 -81 -16 -124 30 -38 40 -38 68 -2
127 10 17 19 36 19 42 0 6 -48 35 -107 65 -59 30 -123 67 -141 83 -29 26 -36
28 -54 17 -24 -15 -24 -15 -53 46 -34 69 -19 85 31 32z m1964 29 c0 -2 -9 -27
-20 -56 -11 -29 -18 -57 -15 -62 3 -5 1 -11 -5 -15 -5 -3 -10 0 -10 8 0 24
-42 29 -65 8 -32 -29 -181 -111 -228 -125 -29 -9 -32 -37 -9 -77 31 -54 28
-90 -10 -128 -27 -26 -40 -31 -80 -31 -51 0 -87 23 -89 58 -2 47 -7 65 -20 73
-22 14 -33 11 -73 -16 -20 -14 -41 -25 -45 -25 -15 0 -81 -104 -81 -127 0 -32
29 -37 194 -31 123 5 147 8 186 29 42 21 200 172 200 190 0 4 12 27 28 51 47
74 52 82 62 106 5 12 14 22 20 22 15 0 12 -16 -5 -34 -8 -8 -15 -19 -15 -25 0
-6 -17 -40 -37 -76 -21 -37 -44 -78 -52 -92 -24 -45 -146 -160 -197 -186 -90
-45 -152 -57 -299 -57 l-138 0 7 52 c4 28 18 75 31 102 25 54 105 148 142 169
12 7 55 31 97 55 41 23 78 42 82 42 29 0 215 64 264 91 8 5 39 21 68 36 29 15
62 38 74 50 18 19 38 30 38 21z m-533 -823 c19 -8 52 -15 72 -15 49 0 118 -38
132 -73 6 -15 22 -36 35 -46 17 -14 24 -29 24 -55 0 -20 -4 -36 -9 -36 -5 0
-20 -17 -32 -37 -33 -54 -83 -103 -105 -103 -10 0 -46 -14 -79 -30 -101 -51
-201 -34 -274 45 -61 67 -74 71 -105 34 -14 -17 -26 -35 -26 -40 0 -5 -6 -9
-14 -9 -7 0 -19 -7 -26 -15 -20 -24 -112 -20 -135 5 -10 11 -23 20 -30 20 -6
0 -17 11 -22 23 -11 24 -67 57 -96 57 -30 0 -58 50 -55 99 4 61 23 59 24 -3 2
-56 15 -68 79 -76 36 -4 43 -10 65 -52 15 -28 32 -48 42 -48 9 0 20 -4 23 -10
21 -34 115 13 144 72 19 39 24 42 55 40 19 -2 43 1 54 7 28 15 38 76 18 106
-25 37 -19 59 23 95 67 57 148 74 218 45z m-516 -481 c18 -16 65 -19 74 -4 3
5 24 14 47 21 35 9 51 7 109 -11 65 -21 92 -22 147 -5 18 6 22 4 22 -14 0 -13
-9 -25 -24 -31 -36 -13 -96 -78 -102 -110 -4 -15 -29 -51 -56 -79 l-50 -51
-124 0 -124 0 -40 37 c-42 37 -66 71 -57 80 3 3 16 -7 29 -22 29 -33 77 -55
99 -44 9 4 32 3 53 -3 28 -9 45 -9 67 -1 16 6 47 9 69 6 36 -5 43 -2 80 35 40
40 47 56 31 80 -12 19 -111 -12 -165 -50 -22 -15 -43 -28 -46 -28 -4 0 -20 11
-36 25 -15 13 -58 33 -94 44 l-65 20 -16 -21 -17 -22 -20 33 c-11 18 -39 44
-61 58 -27 16 -41 31 -41 45 0 15 4 18 18 13 36 -16 82 -17 124 -1 75 27 137
27 169 0z"/>
<path d="M4882 3163 c3 -33 6 -38 28 -38 22 0 25 4 25 35 0 31 -3 35 -28 38
-27 3 -28 2 -25 -35z"/>
<path d="M4836 3064 c-7 -18 16 -60 43 -81 26 -20 49 -15 87 21 27 26 34 39
29 55 -7 24 -35 27 -65 9 -16 -10 -24 -10 -40 0 -27 17 -47 15 -54 -4z"/>
<path d="M4842 2908 c-7 -7 -12 -17 -12 -24 0 -12 65 -74 77 -74 3 0 21 9 39
20 38 24 51 54 34 75 -15 18 -121 20 -138 3z"/>
<path d="M4884 2739 c-8 -13 25 -24 37 -12 7 7 3 12 -10 16 -12 3 -24 1 -27
-4z"/>
<path d="M4305 2290 c-12 -19 5 -50 28 -50 56 1 65 53 10 58 -17 2 -34 -2 -38
-8z"/>
<path d="M5468 2299 c-39 -22 -5 -79 34 -58 21 11 24 39 6 57 -14 14 -18 14
-40 1z"/>
<path d="M5250 1805 c-7 -8 -21 -15 -31 -15 -10 0 -26 -11 -35 -25 -14 -22
-14 -27 0 -55 18 -37 12 -80 -16 -127 -11 -19 -17 -41 -13 -52 13 -43 107 -91
178 -91 39 0 114 38 137 70 94 132 3 310 -160 310 -30 0 -52 -6 -60 -15z"/>
<path d="M5510 1741 c0 -27 15 -34 34 -15 19 19 12 34 -15 34 -12 0 -19 -7
-19 -19z"/>
<path d="M5552 1688 c-15 -15 -16 -74 -1 -83 17 -11 58 4 69 26 23 41 -35 90
-68 57z"/>
<path d="M5528 1566 c-21 -16 -24 -36 -5 -36 18 0 49 34 40 43 -9 10 -15 8
-35 -7z"/>
<path d="M4727 1324 c-40 -22 -29 -38 31 -45 33 -5 65 -16 86 -33 36 -27 99
-36 112 -15 12 19 88 49 127 49 26 0 37 4 37 15 0 38 -133 61 -174 30 -25 -19
-50 -19 -66 0 -17 20 -116 19 -153 -1z"/>
<path d="M3068 3389 c-23 -13 -23 -39 -1 -39 9 0 24 -6 32 -14 9 -8 49 -28 90
-45 55 -23 88 -31 135 -31 83 0 104 8 122 42 14 27 14 31 -3 50 -39 44 -76 51
-205 37 -91 -10 -121 -10 -130 -1 -14 14 -18 14 -40 1z"/>
<path d="M6440 3392 c-74 -37 -87 -68 -43 -108 26 -24 33 -26 113 -22 77 3 93
8 175 49 117 59 118 74 5 74 -47 1 -119 4 -160 8 -41 4 -82 4 -90 -1z"/>
<path d="M2935 3225 c-5 -1 -37 -9 -70 -16 -51 -11 -67 -21 -116 -70 -64 -64
-83 -109 -77 -178 6 -56 28 -106 69 -148 25 -27 37 -33 72 -33 62 1 89 28 95
93 5 65 -16 89 -86 97 -65 7 -62 30 8 75 84 54 169 47 248 -20 42 -35 59 -69
70 -140 10 -62 -2 -139 -29 -184 -8 -13 -56 -81 -108 -150 -126 -170 -161
-251 -161 -376 1 -144 42 -262 129 -363 67 -78 266 -115 390 -73 35 12 69 27
77 34 7 7 31 25 54 42 82 59 129 181 146 375 6 66 -27 301 -45 324 -5 6 -11
25 -14 41 -8 44 -32 105 -70 177 -27 51 -42 67 -77 84 -64 31 -90 66 -90 119
0 53 -38 107 -125 178 -78 63 -118 83 -194 97 -34 6 -68 13 -74 15 -7 2 -16 2
-22 0z m422 -628 c70 -143 78 -179 78 -347 0 -159 -11 -197 -74 -266 -49 -54
-176 -69 -238 -29 -12 8 -35 36 -50 62 -25 44 -28 56 -27 138 1 105 12 131
118 269 67 88 116 173 116 201 0 9 5 26 11 37 l11 21 17 -22 c10 -13 27 -41
38 -64z"/>
<path d="M3290 2553 c0 -21 -74 -136 -124 -195 -58 -67 -86 -138 -86 -216 1
-117 51 -176 150 -175 104 1 150 59 169 213 9 69 8 102 -4 175 -16 90 -41 179
-58 203 -14 18 -47 15 -47 -5z"/>
<path d="M6785 3207 c-77 -20 -152 -65 -225 -137 -70 -68 -74 -75 -85 -152 -7
-50 -37 -84 -96 -107 -43 -16 -123 -188 -170 -366 -9 -32 -13 -111 -14 -220 0
-153 3 -176 24 -235 24 -69 74 -144 121 -184 16 -13 60 -39 97 -56 67 -32 69
-32 172 -26 87 6 113 12 164 37 87 43 128 95 191 242 24 57 22 255 -3 322 -30
77 -64 132 -142 230 -106 131 -139 199 -139 285 0 105 39 174 125 219 72 38
187 19 240 -39 24 -26 5 -50 -40 -50 -83 0 -116 -95 -56 -159 23 -24 37 -31
68 -31 48 0 72 17 112 78 26 41 31 59 31 109 0 33 -6 76 -14 94 -18 42 -88
113 -133 134 -45 22 -165 28 -228 12z m-241 -543 c3 -9 6 -27 6 -40 0 -37 35
-99 108 -194 78 -100 106 -155 123 -236 24 -122 -44 -244 -144 -259 -75 -11
-141 9 -182 57 -51 61 -70 131 -70 268 0 110 21 226 47 255 4 5 8 15 8 22 0
22 71 143 85 143 7 0 16 -7 19 -16z"/>
<path d="M6498 2568 c-24 -19 -54 -119 -69 -230 -10 -79 -10 -113 0 -180 15
-97 28 -126 73 -160 69 -52 139 -47 199 15 l39 39 0 90 c0 105 -4 114 -105
248 -39 52 -82 116 -94 143 -13 26 -24 47 -25 47 -1 0 -10 -6 -18 -12z"/>
<path d="M6316 2999 c-31 -25 -33 -50 -5 -95 48 -79 147 -39 125 50 -5 21 -63
66 -85 66 -5 0 -20 -9 -35 -21z"/>
<path d="M3415 2963 c-30 -34 -32 -62 -5 -91 55 -59 141 0 125 85 -6 31 -8 33
-50 33 -35 0 -49 -6 -70 -27z"/>
<path d="M3530 2800 c0 -18 6 -33 15 -37 23 -8 28 1 20 36 -9 41 -35 41 -35 1z"/>
<path d="M6267 2823 c-14 -13 -7 -73 8 -73 14 0 36 57 28 73 -5 9 -27 9 -36 0z"/>
<path d="M5702 1276 c-29 -43 -181 -197 -247 -252 -103 -84 -210 -152 -360
-227 -145 -73 -174 -81 -239 -62 -30 9 -77 27 -105 40 -28 14 -54 25 -58 25
-12 0 -93 41 -99 51 -3 5 -11 9 -19 9 -15 0 -126 73 -190 125 -59 47 -215 202
-261 259 -37 45 -41 47 -57 32 -9 -9 -21 -34 -27 -56 -6 -21 -16 -49 -23 -62
-17 -31 -50 -82 -58 -88 -3 -3 -9 -15 -13 -27 -7 -22 25 -95 55 -125 8 -8 25
-30 39 -48 35 -49 229 -238 286 -280 108 -80 265 -156 369 -180 28 -7 64 -16
81 -21 49 -14 226 -11 301 7 124 29 282 94 333 139 8 7 25 16 38 19 12 4 22
11 22 16 0 5 9 11 19 15 28 9 203 174 273 257 120 144 139 188 99 232 -28 31
-81 132 -81 154 0 36 -22 82 -38 82 -10 0 -28 -16 -40 -34z"/>
<path d="M3917 893 c-18 -18 1 -109 26 -125 20 -13 64 -9 77 7 14 17 1 58 -32
100 -18 24 -57 33 -71 18z"/>
<path d="M5849 888 c-69 -57 -56 -148 18 -122 35 12 64 83 47 112 -14 22 -45
26 -65 10z"/>
<path d="M4183 593 c-37 -7 -32 -64 8 -97 41 -34 76 -34 90 0 12 34 4 58 -28
84 -26 20 -30 21 -70 13z"/>
<path d="M5573 574 c-21 -16 -33 -34 -33 -49 0 -59 28 -70 85 -35 61 38 52
109 -15 110 -3 0 -20 -12 -37 -26z"/>
<path d="M4501 401 c-27 -27 -26 -42 3 -70 28 -27 93 -26 110 1 14 22 -9 65
-39 72 -13 3 -30 9 -38 12 -9 3 -25 -4 -36 -15z"/>
<path d="M5253 405 c-40 -17 -58 -48 -43 -75 23 -43 130 -14 130 35 0 16 -34
55 -47 55 -5 -1 -22 -7 -40 -15z"/>
<path d="M4859 329 c-14 -14 -18 -27 -13 -42 10 -31 23 -38 74 -35 39 3 46 7
55 32 8 24 6 31 -14 47 -30 25 -76 24 -102 -2z"/>
</g>
</svg>
